<svg xmlns="http://www.w3.org/2000/svg" xmlns:xlink="http://www.w3.org/1999/xlink" width="500" zoomAndPan="magnify" viewBox="0 0 375 374.999991" height="500" preserveAspectRatio="xMidYMid meet" version="1.0"><defs><filter x="0%" y="0%" width="100%" height="100%" id="f6c142447c"><feColorMatrix values="0 0 0 0 1 0 0 0 0 1 0 0 0 0 1 0 0 0 1 0" color-interpolation-filters="sRGB"/></filter><g/><mask id="15b042beb9"><g filter="url(#f6c142447c)"><rect x="-37.5" width="450" fill="#000000" y="-37.499999" height="449.999989" fill-opacity="0.8"/></g></mask><clipPath id="fa2a3dd5ce"><path d="M 1.074219 0.777344 L 146.699219 0.777344 L 146.699219 146.402344 L 1.074219 146.402344 Z M 1.074219 0.777344 " clip-rule="nonzero"/></clipPath><clipPath id="1eb0dcfcde"><rect x="0" width="147" y="0" height="147"/></clipPath><mask id="2e6efd583c"><g filter="url(#f6c142447c)"><rect x="-37.5" width="450" fill="#000000" y="-37.499999" height="449.999989" fill-opacity="0.8"/></g></mask><clipPath id="2c287af1cb"><path d="M 0.765625 0.777344 L 146.390625 0.777344 L 146.390625 146.402344 L 0.765625 146.402344 Z M 0.765625 0.777344 " clip-rule="nonzero"/></clipPath><clipPath id="3fe9a8de29"><rect x="0" width="147" y="0" height="147"/></clipPath><mask id="5ff2bc4b42"><g filter="url(#f6c142447c)"><rect x="-37.5" width="450" fill="#000000" y="-37.499999" height="449.999989" fill-opacity="0.8"/></g></mask><clipPath id="134efba485"><path d="M 0.757812 0.777344 L 146.382812 0.777344 L 146.382812 146.402344 L 0.757812 146.402344 Z M 0.757812 0.777344 " clip-rule="nonzero"/></clipPath><clipPath id="0a7b601c0a"><rect x="0" width="147" y="0" height="147"/></clipPath><mask id="cfa500f3b0"><g filter="url(#f6c142447c)"><rect x="-37.5" width="450" fill="#000000" y="-37.499999" height="449.999989" fill-opacity="0.8"/></g></mask><clipPath id="af41ba5753"><path d="M 0.480469 0.777344 L 146.105469 0.777344 L 146.105469 146.402344 L 0.480469 146.402344 Z M 0.480469 0.777344 " clip-rule="nonzero"/></clipPath><clipPath id="e792f86ef5"><rect x="0" width="147" y="0" height="147"/></clipPath></defs><g mask="url(#15b042beb9)"><g transform="matrix(1, 0, 0, 1, 6, 114)"><g clip-path="url(#1eb0dcfcde)"><g clip-path="url(#fa2a3dd5ce)"><path fill="#5ce1e6" d="M 73.886719 0.777344 C 33.675781 0.777344 1.074219 33.378906 1.074219 73.589844 C 1.074219 113.804688 33.675781 146.402344 73.886719 146.402344 C 114.101562 146.402344 146.699219 113.804688 146.699219 73.589844 C 146.699219 33.378906 114.101562 0.777344 73.886719 0.777344 " fill-opacity="1" fill-rule="nonzero"/></g></g></g></g><g mask="url(#2e6efd583c)"><g transform="matrix(1, 0, 0, 1, 79, 114)"><g clip-path="url(#3fe9a8de29)"><g clip-path="url(#2c287af1cb)"><path fill="#cb6ce6" d="M 73.578125 0.777344 C 33.367188 0.777344 0.765625 33.378906 0.765625 73.589844 C 0.765625 113.804688 33.367188 146.402344 73.578125 146.402344 C 113.792969 146.402344 146.390625 113.804688 146.390625 73.589844 C 146.390625 33.378906 113.792969 0.777344 73.578125 0.777344 " fill-opacity="1" fill-rule="nonzero"/></g></g></g></g><g mask="url(#5ff2bc4b42)"><g transform="matrix(1, 0, 0, 1, 149, 114)"><g clip-path="url(#0a7b601c0a)"><g clip-path="url(#134efba485)"><path fill="#ffde59" d="M 73.570312 0.777344 C 33.359375 0.777344 0.757812 33.378906 0.757812 73.589844 C 0.757812 113.804688 33.359375 146.402344 73.570312 146.402344 C 113.785156 146.402344 146.382812 113.804688 146.382812 73.589844 C 146.382812 33.378906 113.785156 0.777344 73.570312 0.777344 " fill-opacity="1" fill-rule="nonzero"/></g></g></g></g><g mask="url(#cfa500f3b0)"><g transform="matrix(1, 0, 0, 1, 222, 114)"><g clip-path="url(#e792f86ef5)"><g clip-path="url(#af41ba5753)"><path fill="#5ce1e6" d="M 73.292969 0.777344 C 33.078125 0.777344 0.480469 33.378906 0.480469 73.589844 C 0.480469 113.804688 33.078125 146.402344 73.292969 146.402344 C 113.507812 146.402344 146.105469 113.804688 146.105469 73.589844 C 146.105469 33.378906 113.507812 0.777344 73.292969 0.777344 " fill-opacity="1" fill-rule="nonzero"/></g></g></g></g><g fill="#ffffff" fill-opacity="1"><g transform="translate(67.251723, 201.560266)"><g><path d="M 21.980469 -13.238281 C 22.4375 -13.273438 22.890625 -12.921875 23.136719 -12.5 C 23.382812 -12.007812 23.382812 -11.410156 23.382812 -10.8125 C 23.382812 -7.546875 23.347656 -4.285156 23.347656 -1.019531 C 23.347656 -0.808594 23.347656 -0.5625 23.488281 -0.457031 C 23.628906 -0.351562 23.769531 -0.351562 23.910156 -0.316406 C 25.210938 -0.210938 26.542969 -0.140625 27.878906 -0.175781 C 28.089844 -0.175781 28.371094 -0.175781 28.578125 -0.28125 C 29.035156 -0.5625 29.070312 -1.230469 29.035156 -1.753906 C 28.578125 -9.058594 28.859375 -16.292969 28.859375 -23.59375 C 28.894531 -25.070312 28.195312 -25.734375 26.753906 -25.875 C 24.929688 -26.015625 21.699219 -26.613281 20.75 -24.507812 C 19.101562 -20.714844 17.203125 -17.027344 15.414062 -13.308594 C 14.886719 -12.253906 13.902344 -13.132812 13.449219 -13.726562 C 11.867188 -15.941406 10.429688 -18.433594 9.761719 -21.101562 C 9.09375 -23.804688 7.511719 -25.734375 4.5625 -25.980469 C 3.476562 -26.085938 1.894531 -26.15625 0.84375 -25.769531 C 0.0351562 -25.492188 0 -24.894531 0 -24.085938 C 0.0703125 -18.960938 0.0351562 -13.761719 0.0351562 -8.707031 C 0.0351562 -6.003906 -0.0351562 -3.300781 0.0703125 -0.632812 C 0.105469 0.210938 4.320312 -0.0703125 5.019531 -0.105469 C 5.722656 -0.140625 5.722656 -0.878906 5.6875 -1.441406 C 5.617188 -3.335938 5.546875 -5.230469 5.546875 -7.128906 C 5.546875 -8.847656 5.546875 -10.566406 5.546875 -12.289062 C 5.546875 -12.675781 5.828125 -13.027344 6.214844 -13.132812 C 6.285156 -13.167969 6.355469 -13.167969 6.460938 -13.167969 C 7.582031 -13.167969 8.742188 -10.21875 9.234375 -9.375 C 10.148438 -7.757812 10.988281 -6.074219 11.761719 -4.355469 C 12.394531 -2.84375 12.957031 -2.421875 14.570312 -2.316406 L 14.710938 -2.316406 C 14.78125 -2.316406 14.886719 -2.316406 14.957031 -2.316406 C 16.640625 -2.316406 17.132812 -4.5625 17.730469 -5.792969 C 18.785156 -7.933594 19.800781 -10.078125 20.890625 -12.21875 C 21.066406 -12.605469 21.3125 -13.027344 21.699219 -13.167969 C 21.804688 -13.203125 21.875 -13.238281 21.980469 -13.238281 Z M 21.980469 -13.238281 "/></g></g></g><g fill="#ffffff" fill-opacity="1"><g transform="translate(104.568773, 201.560266)"><g><path d="M 17.308594 -26.015625 L 16.292969 -26.015625 C 13.867188 -25.980469 11.375 -25.945312 8.917969 -25.945312 C 7.445312 -25.945312 5.933594 -25.945312 4.460938 -25.980469 C 3.6875 -26.015625 2.914062 -26.015625 2.140625 -26.015625 C 1.613281 -26.050781 0.808594 -26.15625 0.386719 -25.734375 C 0.140625 -25.492188 0.0351562 -24.964844 0.0351562 -24.085938 C 0.105469 -18.960938 0.105469 -13.761719 0.105469 -8.742188 C 0.105469 -7.199219 0.0351562 -5.6875 0 -4.179688 C 0 -3.441406 0 -2.703125 0.0351562 -1.964844 C 0.0351562 -1.507812 -0.0703125 -0.351562 0.421875 -0.140625 C 0.949219 0.105469 1.578125 -0.105469 2.105469 -0.140625 C 4.632812 -0.28125 7.234375 -0.140625 9.761719 -0.105469 C 12.5 -0.105469 15.238281 -0.105469 17.976562 -0.105469 C 18.960938 -0.105469 18.996094 -0.5625 18.960938 -1.371094 C 18.925781 -1.964844 18.960938 -2.5625 18.996094 -3.125 C 19.03125 -3.863281 19.277344 -4.738281 18.257812 -4.738281 C 15.378906 -4.738281 12.535156 -4.703125 9.65625 -4.703125 C 5.230469 -4.703125 5.195312 -4.527344 5.195312 -7.617188 C 5.195312 -10.429688 5.195312 -10.566406 8.460938 -10.566406 C 10.847656 -10.566406 13.238281 -10.671875 15.589844 -10.464844 C 15.835938 -10.464844 16.046875 -10.429688 16.257812 -10.5 C 17.0625 -10.742188 16.886719 -13.0625 16.886719 -13.726562 C 16.886719 -14.253906 16.851562 -15.414062 16.117188 -15.378906 C 13.550781 -15.34375 10.988281 -15.34375 8.425781 -15.34375 C 7.652344 -15.34375 6.917969 -15.34375 6.179688 -15.34375 C 5.6875 -15.34375 5.300781 -15.730469 5.300781 -16.257812 L 5.300781 -20.363281 C 5.300781 -20.855469 5.6875 -21.277344 6.179688 -21.277344 C 8.320312 -21.277344 10.429688 -21.277344 12.570312 -21.277344 C 13.65625 -21.277344 14.710938 -21.277344 15.800781 -21.242188 C 16.398438 -21.242188 18.257812 -20.855469 18.503906 -21.523438 C 18.609375 -21.734375 18.574219 -21.980469 18.574219 -22.191406 C 18.539062 -22.890625 18.539062 -23.628906 18.609375 -24.332031 C 18.644531 -24.824219 18.714844 -25.421875 18.328125 -25.804688 C 18.257812 -25.875 18.046875 -26.015625 17.308594 -26.015625 Z M 17.308594 -26.015625 "/></g></g></g><g fill="#ffffff" fill-opacity="1"><g transform="translate(131.881293, 201.560266)"><g><path d="M 4.667969 -26.015625 C 3.792969 -26.050781 2.949219 -26.050781 2.070312 -26.050781 C 1.753906 -26.050781 1.40625 -26.050781 1.089844 -25.945312 C -0.597656 -25.386719 0.175781 -22.609375 0.210938 -21.347656 C 0.246094 -19.382812 0.210938 -17.449219 0.210938 -15.484375 C 0.175781 -11.375 0.175781 -7.234375 0.140625 -3.089844 C 0.140625 -2.386719 -0.0703125 -0.949219 0.421875 -0.386719 C 0.984375 0.210938 2.140625 -0.175781 2.808594 -0.175781 C 3.96875 -0.140625 5.089844 -0.105469 6.214844 -0.105469 C 8.460938 -0.105469 10.671875 -0.140625 12.886719 -0.351562 C 14.746094 -0.5625 16.992188 -1.476562 19.347656 -3.054688 C 23.945312 -6.109375 24.71875 -13.902344 22.503906 -19.03125 C 21.382812 -21.59375 19.453125 -23.417969 16.605469 -24.578125 C 13.972656 -25.664062 10.777344 -26.050781 7.933594 -26.015625 C 6.847656 -26.015625 5.757812 -26.015625 4.667969 -26.015625 Z M 9.65625 -21.277344 C 12.324219 -21.242188 14.921875 -20.539062 16.746094 -18.292969 C 18.46875 -16.152344 18.574219 -12.710938 17.90625 -10.183594 C 17.167969 -7.234375 14.394531 -5.371094 11.515625 -4.984375 C 10.464844 -4.84375 5.6875 -4.074219 5.6875 -5.898438 C 5.6875 -8.53125 5.6875 -11.199219 5.6875 -13.832031 C 5.6875 -15.203125 5.6875 -16.535156 5.722656 -17.871094 C 5.722656 -18.75 5.265625 -20.925781 6.496094 -21.101562 C 7.511719 -21.242188 8.601562 -21.3125 9.65625 -21.277344 Z M 9.65625 -21.277344 "/></g></g></g><g fill="#ffffff" fill-opacity="1"><g transform="translate(163.827494, 201.560266)"><g><path d="M 1.195312 -26.050781 C 0.316406 -26.015625 0 -25.734375 0 -24.789062 C 0.0351562 -16.921875 0 -9.058594 0 -1.195312 C 0 0.140625 3.230469 0.0351562 4.039062 -0.0703125 C 4.914062 -0.175781 5.371094 -0.316406 5.511719 -1.195312 C 5.757812 -3.019531 5.371094 -4.808594 5.371094 -6.601562 C 5.371094 -8.53125 5.40625 -10.464844 5.40625 -12.394531 C 5.40625 -16.433594 5.40625 -20.503906 5.40625 -24.542969 C 5.40625 -25.210938 5.617188 -25.945312 4.773438 -25.980469 C 3.617188 -26.015625 2.492188 -26.050781 1.335938 -26.050781 C 1.300781 -26.050781 1.230469 -26.050781 1.195312 -26.050781 Z M 1.195312 -26.050781 "/></g></g></g><g fill="#ffffff" fill-opacity="1"><g transform="translate(177.695335, 201.560266)"><g><path d="M 21.699219 -23.277344 C 21.523438 -23.417969 21.3125 -23.558594 21.03125 -23.769531 C 18.503906 -25.351562 15.554688 -26.050781 12.605469 -26.085938 L 12.394531 -26.085938 C 8.777344 -26.085938 5.300781 -24.296875 2.84375 -21.171875 C -1.929688 -14.992188 -0.597656 -5.195312 6.671875 -1.542969 C 8.742188 -0.527344 11.023438 -0.0351562 13.34375 -0.0351562 C 16.152344 -0.0351562 18.960938 -0.773438 21.207031 -2.070312 C 24.332031 -3.933594 23.417969 -8.179688 23.453125 -11.234375 C 23.488281 -12.183594 23.453125 -12.78125 22.402344 -12.886719 C 21.664062 -12.957031 20.925781 -12.78125 20.1875 -12.746094 C 19.765625 -12.746094 19.101562 -12.816406 18.679688 -12.675781 C 17.800781 -12.429688 18.222656 -11.339844 18.222656 -10.601562 C 18.257812 -8.390625 18.257812 -5.792969 15.765625 -4.914062 C 12.746094 -3.898438 8.566406 -5.125 6.8125 -7.863281 C 3.582031 -12.886719 5.828125 -20.117188 12.007812 -21.171875 C 13.414062 -21.417969 14.886719 -21.277344 16.257812 -20.785156 C 17.308594 -20.398438 18.609375 -19.171875 19.730469 -19.171875 C 20.503906 -19.171875 21.207031 -20.679688 21.523438 -21.242188 C 22.085938 -22.261719 22.261719 -22.714844 21.699219 -23.277344 Z M 21.699219 -23.277344 "/></g></g></g><g fill="#ffffff" fill-opacity="1"><g transform="translate(209.501109, 201.560266)"><g><path d="M 1.195312 -26.050781 C 0.316406 -26.015625 0 -25.734375 0 -24.789062 C 0.0351562 -16.921875 0 -9.058594 0 -1.195312 C 0 0.140625 3.230469 0.0351562 4.039062 -0.0703125 C 4.914062 -0.175781 5.371094 -0.316406 5.511719 -1.195312 C 5.757812 -3.019531 5.371094 -4.808594 5.371094 -6.601562 C 5.371094 -8.53125 5.40625 -10.464844 5.40625 -12.394531 C 5.40625 -16.433594 5.40625 -20.503906 5.40625 -24.542969 C 5.40625 -25.210938 5.617188 -25.945312 4.773438 -25.980469 C 3.617188 -26.015625 2.492188 -26.050781 1.335938 -26.050781 C 1.300781 -26.050781 1.230469 -26.050781 1.195312 -26.050781 Z M 1.195312 -26.050781 "/></g></g></g><g fill="#ffffff" fill-opacity="1"><g transform="translate(223.368943, 201.560266)"><g><path d="M 20.011719 -21.664062 C 20.082031 -21.734375 20.152344 -21.804688 20.1875 -21.910156 C 20.398438 -22.296875 20.398438 -22.75 20.363281 -23.207031 C 20.363281 -23.769531 20.328125 -24.332031 20.328125 -24.894531 C 20.292969 -25.210938 20.257812 -25.59375 20.011719 -25.839844 C 19.765625 -26.050781 19.417969 -26.050781 19.101562 -26.050781 C 12.992188 -25.945312 6.917969 -25.945312 0.808594 -26.085938 C 0.5625 -26.085938 0.316406 -26.050781 0.140625 -25.875 C 0 -25.734375 0 -25.523438 0 -25.351562 C 0 -24.296875 0 -23.242188 0.0351562 -22.191406 C 0.0351562 -21.945312 0.0703125 -21.664062 0.246094 -21.488281 C 0.421875 -21.3125 0.738281 -21.3125 0.984375 -21.3125 C 2.84375 -21.347656 4.703125 -21.382812 6.566406 -21.382812 C 8.039062 -21.382812 7.445312 -18.644531 7.445312 -17.730469 C 7.480469 -15.976562 7.480469 -14.21875 7.480469 -12.464844 C 7.480469 -9.023438 7.445312 -5.546875 7.445312 -2.105469 C 7.445312 -1.613281 7.339844 -0.5625 7.722656 -0.210938 C 8.179688 0.210938 8.988281 -0.210938 9.515625 -0.210938 C 10.289062 -0.246094 11.058594 -0.210938 11.832031 -0.175781 C 12.535156 -0.105469 12.957031 -0.28125 12.957031 -1.054688 C 12.921875 -7.234375 12.921875 -13.378906 12.921875 -19.554688 C 12.921875 -20.257812 12.816406 -21.488281 13.832031 -21.488281 C 15.203125 -21.488281 16.535156 -21.488281 17.90625 -21.488281 C 18.574219 -21.488281 19.519531 -21.171875 20.011719 -21.664062 Z M 20.011719 -21.664062 "/></g></g></g><g fill="#ffffff" fill-opacity="1"><g transform="translate(252.015391, 201.560266)"><g><path d="M 25.246094 -5.652344 C 23.839844 -9.023438 22.261719 -12.78125 22.15625 -13.027344 C 21.066406 -15.519531 19.941406 -18.011719 18.855469 -20.503906 C 18.292969 -21.769531 17.730469 -22.996094 17.167969 -24.261719 C 16.710938 -25.28125 16.257812 -25.945312 14.992188 -26.050781 C 14.113281 -26.085938 13.238281 -26.015625 12.359375 -26.050781 L 12.289062 -26.050781 C 11.339844 -26.050781 10.917969 -25.734375 10.5 -24.753906 C 8.847656 -20.714844 7.09375 -16.675781 5.335938 -12.675781 C 4.460938 -10.636719 3.582031 -8.636719 2.703125 -6.636719 C 1.894531 -4.773438 0.878906 -2.984375 0.210938 -1.089844 C 0.140625 -0.878906 0.105469 -0.703125 0.0351562 -0.492188 C -0.140625 0.210938 4.597656 -0.140625 5.019531 -0.175781 C 5.652344 -0.210938 5.898438 -0.773438 6.003906 -1.335938 C 6.390625 -3.054688 7.410156 -4.5625 8.988281 -5.371094 C 10.253906 -6.039062 11.515625 -5.96875 12.886719 -5.898438 C 14.042969 -5.863281 15.167969 -5.828125 16.292969 -5.863281 C 17.273438 -5.863281 18.117188 -5.933594 18.996094 -5.335938 C 20.082031 -4.632812 20.609375 -3.371094 20.925781 -2.140625 C 21.136719 -1.195312 21.910156 -0.246094 22.890625 -0.140625 C 24.191406 0 25.492188 -0.0351562 26.753906 -0.0703125 C 27.597656 -0.105469 27.5625 -0.386719 27.246094 -1.160156 C 26.613281 -2.667969 25.875 -4.144531 25.246094 -5.652344 Z M 16.011719 -10.566406 C 14.570312 -10.566406 13.167969 -10.566406 11.761719 -10.566406 C 11.410156 -10.566406 10.394531 -10.289062 10.253906 -10.777344 C 10.21875 -10.882812 10.21875 -11.058594 10.253906 -11.199219 C 10.566406 -12.359375 11.339844 -13.308594 11.832031 -14.394531 C 12.359375 -15.589844 12.816406 -16.816406 13.34375 -18.011719 C 13.65625 -18.785156 13.796875 -18.820312 14.148438 -18.046875 C 14.394531 -17.554688 14.535156 -16.992188 14.78125 -16.46875 C 15.238281 -15.449219 15.589844 -14.359375 16.117188 -13.414062 C 16.5 -12.710938 16.921875 -12.042969 17.132812 -11.304688 C 17.449219 -10.359375 16.78125 -10.601562 16.011719 -10.566406 Z M 16.011719 -10.566406 "/></g></g></g><g fill="#ffffff" fill-opacity="1"><g transform="translate(287.717677, 201.560266)"><g><path d="M 4.703125 -25.804688 C 4.527344 -25.839844 4.320312 -25.875 4.144531 -25.875 C 3.160156 -25.910156 0.84375 -26.507812 0.246094 -25.492188 C -0.175781 -24.789062 0.105469 -23.558594 0.105469 -22.785156 C 0 -18.996094 0.0351562 -15.238281 0.0351562 -11.445312 C 0.0703125 -9.164062 0 -6.882812 0.0351562 -4.5625 C 0.0351562 -3.441406 0 -2.246094 0.140625 -1.125 C 0.351562 0.210938 2.632812 -0.316406 3.652344 -0.316406 C 5.863281 -0.316406 8.074219 -0.210938 10.289062 -0.210938 C 12.078125 -0.175781 14.183594 0.246094 15.941406 -0.316406 C 16.046875 -0.351562 16.117188 -0.386719 16.1875 -0.457031 C 16.257812 -0.527344 16.257812 -0.632812 16.292969 -0.738281 C 16.363281 -1.578125 16.921875 -4.5625 15.800781 -4.914062 C 15.308594 -5.089844 14.5 -4.949219 13.972656 -4.949219 C 11.585938 -4.949219 9.199219 -4.984375 6.8125 -4.878906 C 4.808594 -4.84375 5.265625 -6.53125 5.265625 -8.003906 C 5.265625 -9.832031 5.265625 -11.65625 5.265625 -13.484375 C 5.265625 -17.203125 5.265625 -20.925781 5.265625 -24.648438 C 5.300781 -25.070312 5.300781 -25.523438 4.914062 -25.734375 C 4.84375 -25.769531 4.773438 -25.769531 4.703125 -25.804688 Z M 4.703125 -25.804688 "/></g></g></g></svg>